#N canvas 0 0 450 300 10;
#X obj 36 93 osc~;
#X obj 73 175 dac~;
#X obj 36 63 receive freq;
#X obj 95 91 receive gain;
#X obj 95 120 / 1003;
#X obj 72 145 *~;
#X connect 0 0 5 0;
#X connect 2 0 0 0;
#X connect 3 0 4 0;
#X connect 4 0 5 1;
#X connect 5 0 1 0;
#X connect 5 0 1 1;
