#N canvas 0 22 1366 726 10;
#X obj 2 57 receive freq1;
#X obj 90 57 receive gain1;
#X obj 588 371 +~;
#X obj 578 403 dac~;
#X obj 84 140 +~;
#X obj 248 224 +~;
#X obj 178 57 receive freq2;
#X obj 266 57 receive gain2;
#X obj 353 58 receive freq3;
#X obj 441 58 receive gain3;
#X obj 529 58 receive freq4;
#X obj 617 58 receive gain4;
#X obj 704 57 receive freq5;
#X obj 792 58 receive gain5;
#X obj 880 58 receive freq6;
#X obj 968 58 receive gain6;
#X obj 1055 59 receive freq7;
#X obj 1143 59 receive gain7;
#X obj 1231 59 receive freq8;
#X obj 1319 59 receive gain8;
#X obj 435 138 +~;
#X obj 783 140 +~;
#X obj 1133 138 +~;
#X obj 975 217 +~;
#X obj 2 87 canvas_audio_generator;
#X obj 178 87 canvas_audio_generator;
#X obj 353 87 canvas_audio_generator;
#X obj 529 87 canvas_audio_generator;
#X obj 704 87 canvas_audio_generator;
#X obj 1055 87 canvas_audio_generator;
#X obj 1231 87 canvas_audio_generator;
#X obj 880 87 canvas_audio_generator;
#X connect 0 0 24 0;
#X connect 1 0 24 1;
#X connect 2 0 3 0;
#X connect 2 0 3 1;
#X connect 4 0 5 0;
#X connect 5 0 2 0;
#X connect 6 0 25 0;
#X connect 7 0 25 1;
#X connect 8 0 26 0;
#X connect 9 0 26 1;
#X connect 10 0 27 0;
#X connect 11 0 27 1;
#X connect 12 0 28 0;
#X connect 13 0 28 1;
#X connect 14 0 31 0;
#X connect 15 0 31 1;
#X connect 16 0 29 0;
#X connect 17 0 29 1;
#X connect 18 0 30 0;
#X connect 19 0 30 1;
#X connect 20 0 5 1;
#X connect 21 0 23 0;
#X connect 22 0 23 1;
#X connect 23 0 2 1;
#X connect 24 0 4 0;
#X connect 25 0 4 1;
#X connect 26 0 20 0;
#X connect 27 0 20 1;
#X connect 28 0 21 0;
#X connect 29 0 22 0;
#X connect 30 0 22 1;
#X connect 31 0 21 1;
