#N canvas 1029 81 532 333 10;
#X obj 59 -28 inlet;
#X obj 255 -27 inlet;
#X obj 238 211 outlet~;
#N canvas 1071 409 413 459 main_sound 1;
#X obj 67 8 inlet;
#X obj 129 413 outlet~;
#X obj 262 8 inlet;
#X obj 32 229 osc~;
#X obj 129 382 *~;
#X obj 334 199 line~;
#X obj 86 125 + 12;
#X obj 86 229 osc~;
#X obj 101 338 +~;
#X obj 111 263 *~;
#X obj 32 199 line~;
#X msg 32 173 \$1 5;
#X obj 86 200 line~;
#X msg 86 174 \$1 5;
#X obj 126 146 line~;
#X msg 126 120 \$1 5;
#X msg 334 174 \$1 100;
#X obj 144 303 *~;
#X msg 281 174 \$1 100;
#X obj 281 199 line~;
#X obj 172 120 t f f;
#X obj 281 148 * 8;
#X obj 32 263 *~ 0.5;
#X obj 126 229 +~;
#X obj 126 200 *~;
#X obj 172 94 * 4;
#X msg 172 148 \$1 100;
#X obj 172 174 line~;
#X msg 228 148 \$1 100;
#X obj 228 174 line~;
#X obj 126 174 osc~;
#X obj 67 44 t f f f;
#X obj 262 45 t f f f;
#X obj 126 96 mtof;
#X obj 86 150 mtof;
#X obj 32 150 mtof;
#X obj 126 72 - 5;
#X connect 0 0 31 0;
#X connect 2 0 32 0;
#X connect 3 0 22 0;
#X connect 4 0 1 0;
#X connect 5 0 4 1;
#X connect 6 0 34 0;
#X connect 7 0 9 0;
#X connect 8 0 4 0;
#X connect 9 0 17 0;
#X connect 10 0 3 0;
#X connect 11 0 10 0;
#X connect 12 0 7 0;
#X connect 13 0 12 0;
#X connect 14 0 30 0;
#X connect 15 0 14 0;
#X connect 16 0 5 0;
#X connect 17 0 8 1;
#X connect 18 0 19 0;
#X connect 19 0 17 1;
#X connect 20 0 26 0;
#X connect 20 1 28 0;
#X connect 21 0 18 0;
#X connect 22 0 8 0;
#X connect 23 0 9 1;
#X connect 24 0 23 0;
#X connect 25 0 20 0;
#X connect 26 0 27 0;
#X connect 27 0 24 1;
#X connect 28 0 29 0;
#X connect 29 0 23 1;
#X connect 30 0 24 0;
#X connect 31 0 35 0;
#X connect 31 1 6 0;
#X connect 31 2 36 0;
#X connect 32 0 25 0;
#X connect 32 1 21 0;
#X connect 32 2 16 0;
#X connect 33 0 15 0;
#X connect 34 0 13 0;
#X connect 35 0 11 0;
#X connect 36 0 33 0;
#X restore 59 110 pd main_sound;
#X obj 59 48 t f f;
#X obj 255 48 t f f;
#N canvas 262 374 481 599 inital_sound 1;
#X obj 130 29 inlet;
#X obj 250 29 inlet;
#X obj 130 463 line~;
#X msg 130 349 \$1 5;
#X obj 130 486 osc~;
#X obj 130 564 outlet~;
#X obj 250 75 select 0;
#X obj 250 213 float 1;
#X msg 250 121 1;
#X msg 250 331 0;
#X obj 250 167 select 1;
#X obj 295 103 bng 15 250 50 0 empty empty empty 17 7 0 10 -262144
-1 -1;
#X msg 323 103 0;
#X obj 250 259 trigger bang bang bang;
#X obj 250 397 line~;
#X msg 379 312 \$1 5;
#X obj 250 305 delay 10;
#X obj 130 540 *~;
#X obj 83 191 float 0;
#X obj 68 218 ==;
#X obj 29 126 float 0;
#X obj 68 245 select 1;
#X obj 29 93 t f b;
#X obj 21 308 float 0;
#X obj 29 153 t f f f;
#X msg 250 357 \$1 1000;
#X obj 21 333 t f b f;
#X obj 3 403 float 1;
#X obj 3 379 delay 110;
#X msg 3 426 \$1 900;
#X msg 379 289 0.15;
#X obj 130 67 + 12;
#X obj 130 94 mtof;
#X connect 0 0 31 0;
#X connect 1 0 6 0;
#X connect 2 0 4 0;
#X connect 3 0 2 0;
#X connect 4 0 17 0;
#X connect 6 0 8 0;
#X connect 6 1 11 0;
#X connect 7 0 10 0;
#X connect 8 0 7 1;
#X connect 9 0 25 0;
#X connect 10 0 13 0;
#X connect 11 0 7 0;
#X connect 12 0 7 1;
#X connect 13 0 16 0;
#X connect 13 1 12 0;
#X connect 13 2 30 0;
#X connect 14 0 17 1;
#X connect 15 0 14 0;
#X connect 16 0 9 0;
#X connect 17 0 5 0;
#X connect 18 0 19 1;
#X connect 19 0 21 0;
#X connect 20 0 24 0;
#X connect 21 1 23 0;
#X connect 22 0 20 0;
#X connect 22 1 18 0;
#X connect 23 0 26 0;
#X connect 24 0 23 1;
#X connect 24 1 18 1;
#X connect 24 2 19 0;
#X connect 25 0 14 0;
#X connect 26 0 27 1;
#X connect 26 1 28 0;
#X connect 26 2 3 0;
#X connect 27 0 29 0;
#X connect 28 0 27 0;
#X connect 29 0 2 0;
#X connect 30 0 15 0;
#X connect 31 0 32 0;
#X connect 32 0 3 0;
#X restore 195 110 pd inital_sound;
#X obj 302 -27 inlet;
#X text 59 -44 pitch;
#X text 254 -44 gain;
#X text 298 -44 reverb;
#X obj 226 143 overdrive~;
#X obj 302 81 * 100;
#X obj 450 -9 inlet~;
#X obj 376 140 *~;
#X msg 400 79 \$1 20;
#X obj 400 101 line~;
#X obj 403 33 * 0.899;
#X obj 401 56 + 0.1;
#X connect 0 0 4 0;
#X connect 1 0 5 0;
#X connect 3 0 11 0;
#X connect 4 0 3 0;
#X connect 4 1 6 0;
#X connect 5 0 3 1;
#X connect 5 1 6 1;
#X connect 6 0 11 0;
#X connect 7 0 12 0;
#X connect 7 0 17 0;
#X connect 11 0 2 0;
#X connect 12 0 11 1;
#X connect 13 0 14 0;
#X connect 14 0 2 0;
#X connect 15 0 16 0;
#X connect 16 0 14 1;
#X connect 17 0 18 0;
#X connect 18 0 15 0;
