#N canvas 19 161 1696 794 10;
#X obj 596 317 +~;
#X obj 583 349 dac~;
#X obj 85 45 r rev1;
#X obj -44 45 r freq1;
#X obj 20 45 r gain1;
#X obj 139 45 r freq2;
#X obj 203 45 r gain2;
#X obj 268 45 r rev2;
#X obj 319 45 r freq3;
#X obj 383 45 r gain3;
#X obj 448 45 r rev3;
#X obj 499 45 r freq4;
#X obj 563 45 r gain4;
#X obj 628 45 r rev4;
#X obj 679 45 r freq5;
#X obj 743 45 r gain5;
#X obj 808 45 r rev5;
#X obj 862 45 r freq6;
#X obj 926 45 r gain6;
#X obj 991 45 r rev6;
#X obj 1041 45 r freq7;
#X obj 1106 45 r gain7;
#X obj 1171 45 r rev7;
#X obj 1222 45 r freq8;
#X obj 1286 45 r gain8;
#X obj 1351 45 r rev8;
#X obj 1212 118 delwrite~ cv_08 10;
#X obj 1308 18 delread~ cv_08 1;
#X obj 137 109 delwrite~ cv_02 10;
#X obj 234 8 delread~ cv_02 1;
#X obj 415 16 delread~ cv_03 1;
#X obj 319 116 delwrite~ cv_03 10;
#X obj -44 109 delwrite~ cv_01 100;
#X obj 52 8 delread~ cv_01 20;
#X obj 319 75 canvas_audio_generator;
#X obj -44 75 canvas_audio_generator;
#X obj 139 75 canvas_audio_generator;
#X obj 499 75 canvas_audio_generator;
#X obj 679 75 canvas_audio_generator;
#X obj 862 75 canvas_audio_generator;
#X obj 1042 75 canvas_audio_generator;
#X obj 1222 75 canvas_audio_generator;
#X obj 608 18 delread~ cv_04 1;
#X obj 492 117 delwrite~ cv_04 10;
#X obj 797 8 delread~ cv_05 1;
#X obj 701 108 delwrite~ cv_05 10;
#X obj 968 9 delread~ cv_06 1;
#X obj 872 109 delwrite~ cv_06 10;
#X obj 1157 4 delread~ cv_07 1;
#X obj 1061 104 delwrite~ cv_07 10;
#X connect 0 0 1 0;
#X connect 0 0 1 1;
#X connect 2 0 35 2;
#X connect 3 0 35 0;
#X connect 4 0 35 1;
#X connect 5 0 36 0;
#X connect 6 0 36 1;
#X connect 7 0 36 2;
#X connect 8 0 34 0;
#X connect 9 0 34 1;
#X connect 10 0 34 2;
#X connect 11 0 37 0;
#X connect 12 0 37 1;
#X connect 13 0 37 2;
#X connect 14 0 38 0;
#X connect 15 0 38 1;
#X connect 16 0 38 2;
#X connect 17 0 39 0;
#X connect 18 0 39 1;
#X connect 19 0 39 2;
#X connect 20 0 40 0;
#X connect 21 0 40 1;
#X connect 22 0 40 2;
#X connect 23 0 41 0;
#X connect 24 0 41 1;
#X connect 25 0 41 2;
#X connect 27 0 41 3;
#X connect 29 0 36 3;
#X connect 30 0 34 3;
#X connect 33 0 35 3;
#X connect 34 0 0 0;
#X connect 34 0 31 0;
#X connect 35 0 0 0;
#X connect 35 0 32 0;
#X connect 36 0 0 0;
#X connect 36 0 28 0;
#X connect 37 0 0 0;
#X connect 37 0 43 0;
#X connect 38 0 0 1;
#X connect 38 0 45 0;
#X connect 39 0 0 1;
#X connect 39 0 47 0;
#X connect 40 0 0 1;
#X connect 40 0 49 0;
#X connect 41 0 0 1;
#X connect 41 0 26 0;
#X connect 42 0 37 3;
#X connect 44 0 38 3;
#X connect 46 0 39 3;
#X connect 48 0 40 3;
