#N canvas 255 65 1526 923 12;
#X obj 13 11 inlet~;
#X obj 13 685 +~;
#X obj 55 685 +~;
#X obj -197 746 outlet~;
#X obj -127 746 outlet~;
#X obj -26 804 +~;
#X obj 83 805 +~;
#X obj 16 804 -~;
#X obj 123 804 -~;
#X obj -27 860 +~;
#X obj 17 861 +~;
#X obj 61 862 -~;
#X obj 100 862 -~;
#X obj 60 944 *~ 0;
#X obj 18 943 *~ 0;
#X obj -27 942 *~ 0;
#X obj 101 945 *~ 0;
#X obj 368 835 inlet;
#X obj 368 907 / 200;
#X obj 368 859 min 100;
#X obj 368 882 max 0;
#X text 36 585 Get the outputs of the recirculating delays. Add the
inputs to two of them.;
#X text 156 783 Do a power-conserving mix of them in pairs. First combine
(1 \, 2) and (3 \, 4)...;
#X text 138 855 ...then (1 \, 3) and (2 \, 4);
#X text 182 939 The two mixing stages have a combined gain of 2 \,
so the recirculation gain is limited to 0.5.;
#X text 322 1012 Put the signals back into the;
#X text 320 1027 recirculating delays.;
#X text -235 766 Tap outputs from here.;
#X text 444 851 0 to 100 to control reverb;
#X text 455 866 time.;
#X text 427 834 feedback gain on a scale of;
#X obj 13 58 +~;
#X obj 46 58 -~;
#X obj 13 151 +~;
#X obj 45 151 -~;
#X obj 13 233 +~;
#X obj 45 233 -~;
#X obj 13 321 +~;
#X obj 45 321 -~;
#X obj 13 403 +~;
#X obj 45 403 -~;
#X obj 13 486 +~;
#X obj 45 486 -~;
#X text 294 279 "early echo" generators \, which also increase echo
density.;
#X obj 46 82 delwrite~ \$0-echo-del1 5.43216;
#X obj 46 108 delread~ \$0-echo-del1 5.43216;
#X obj 45 175 delwrite~ \$0-echo-del2 8.45346;
#X obj 45 201 delread~ \$0-echo-del2 8.45346;
#X obj 45 257 delwrite~ \$0-echo-del3 13.4367;
#X obj 45 283 delread~ \$0-echo-del3 13.4367;
#X obj 45 345 delwrite~ \$0-echo-del4 21.5463;
#X obj 45 371 delread~ \$0-echo-del4 21.5463;
#X obj 45 510 delwrite~ \$0-echo-del6 55.5437;
#X obj 45 536 delread~ \$0-echo-del6 55.5437;
#X obj 34 624 delread~ \$0-loop-del1 60;
#X obj 76 649 delread~ \$0-loop-del2 71.9345;
#X obj 122 678 delread~ \$0-loop-del3 86.7545;
#X obj 144 703 delread~ \$0-loop-del4 95.945;
#X obj 100 985 delwrite~ \$0-loop-del4 95.945;
#X obj 61 1008 delwrite~ \$0-loop-del3 86.7545;
#X obj 19 1031 delwrite~ \$0-loop-del2 71.9345;
#X obj -26 1053 delwrite~ \$0-loop-del1 60;
#X obj 45 427 delwrite~ \$0-echo-del5 34.3876;
#X obj 45 453 delread~ \$0-echo-del5 34.3876;
#X connect 0 0 31 0;
#X connect 0 0 32 0;
#X connect 1 0 3 0;
#X connect 1 0 5 0;
#X connect 1 0 7 0;
#X connect 2 0 4 0;
#X connect 2 0 5 1;
#X connect 2 0 7 1;
#X connect 5 0 9 0;
#X connect 5 0 11 0;
#X connect 6 0 11 1;
#X connect 6 0 9 1;
#X connect 7 0 10 0;
#X connect 7 0 12 0;
#X connect 8 0 10 1;
#X connect 8 0 12 1;
#X connect 9 0 15 0;
#X connect 10 0 14 0;
#X connect 11 0 13 0;
#X connect 12 0 16 0;
#X connect 13 0 59 0;
#X connect 14 0 60 0;
#X connect 15 0 61 0;
#X connect 16 0 58 0;
#X connect 17 0 19 0;
#X connect 18 0 16 1;
#X connect 18 0 15 1;
#X connect 18 0 14 1;
#X connect 18 0 13 1;
#X connect 19 0 20 0;
#X connect 20 0 18 0;
#X connect 31 0 33 0;
#X connect 31 0 34 0;
#X connect 32 0 44 0;
#X connect 33 0 35 0;
#X connect 33 0 36 0;
#X connect 34 0 46 0;
#X connect 35 0 37 0;
#X connect 35 0 38 0;
#X connect 36 0 48 0;
#X connect 37 0 40 0;
#X connect 37 0 39 0;
#X connect 38 0 50 0;
#X connect 39 0 41 0;
#X connect 39 0 42 0;
#X connect 40 0 62 0;
#X connect 41 0 1 0;
#X connect 42 0 52 0;
#X connect 45 0 33 1;
#X connect 45 0 34 1;
#X connect 47 0 35 1;
#X connect 47 0 36 1;
#X connect 49 0 37 1;
#X connect 49 0 38 1;
#X connect 51 0 39 1;
#X connect 51 0 40 1;
#X connect 53 0 2 0;
#X connect 54 0 1 1;
#X connect 55 0 2 1;
#X connect 56 0 6 0;
#X connect 56 0 8 0;
#X connect 57 0 6 1;
#X connect 57 0 8 1;
#X connect 63 0 41 1;
#X connect 63 0 42 1;
